<?xml version="1.0" encoding="UTF-8" standalone="no"?>
<!-- Created with Inkscape (http://www.inkscape.org/) -->

<svg
   xmlns:dc="http://purl.org/dc/elements/1.1/"
   xmlns:cc="http://creativecommons.org/ns#"
   xmlns:rdf="http://www.w3.org/1999/02/22-rdf-syntax-ns#"
   xmlns:svg="http://www.w3.org/2000/svg"
   xmlns="http://www.w3.org/2000/svg"
   xmlns:sodipodi="http://sodipodi.sourceforge.net/DTD/sodipodi-0.dtd"
   xmlns:inkscape="http://www.inkscape.org/namespaces/inkscape"
   width="2985.2561"
   height="75"
   id="svg2"
   version="1.1"
   inkscape:version="0.48.5 r10040"
   sodipodi:docname="naacl-hlt-2015-banner.svg"
   inkscape:export-filename="/Users/peb/Documents/NAACL-HLT-2015/testwww/shrdlite-template/img/naacl-hlt-2015-banner.png"
   inkscape:export-xdpi="90"
   inkscape:export-ydpi="90">
  <defs
     id="defs4" />
  <sodipodi:namedview
     id="base"
     pagecolor="#ffdcb9"
     bordercolor="#666666"
     borderopacity="1.0"
     inkscape:pageopacity="0"
     inkscape:pageshadow="2"
     inkscape:zoom="1"
     inkscape:cx="336.61685"
     inkscape:cy="-7.7041247"
     inkscape:document-units="px"
     inkscape:current-layer="g3029"
     showgrid="false"
     showguides="true"
     inkscape:guide-bbox="true"
     inkscape:window-width="1357"
     inkscape:window-height="856"
     inkscape:window-x="61"
     inkscape:window-y="0"
     inkscape:window-maximized="0"
     fit-margin-top="0"
     fit-margin-left="0"
     fit-margin-right="0"
     fit-margin-bottom="0" />
  <metadata
     id="metadata7">
    <rdf:RDF>
      <cc:Work
         rdf:about="">
        <dc:format>image/svg+xml</dc:format>
        <dc:type
           rdf:resource="http://purl.org/dc/dcmitype/StillImage" />
        <dc:title></dc:title>
      </cc:Work>
    </rdf:RDF>
  </metadata>
  <g
     inkscape:label="Layer 1"
     inkscape:groupmode="layer"
     id="layer1"
     transform="translate(75.864735,-751.23682)">
    <g
       id="g3029"
       transform="matrix(1.3590055,0,0,1.3590055,-3.05413,-299.12912)">
      <g
         id="g3030"
         transform="matrix(1.0709504,0,0,1.0709504,-74.125248,-56.794862)">
        <g
           id="g3047"
           inkscape:export-xdpi="299"
           inkscape:export-ydpi="299"
           transform="translate(19.372583,65.00965)" />
        <path
           style="font-size:64px;font-style:normal;font-variant:normal;font-weight:500;font-stretch:normal;line-height:125%;letter-spacing:0px;word-spacing:0px;fill:#000000;fill-opacity:1;stroke:none;font-family:Futura;-inkscape-font-specification:Futura Medium"
           d="m 19.1875,94.40625 0,51.53125 7.28125,0 0,-33.78125 12.4375,13 3.1875,-6.8125 -22.90625,-23.9375 z"
           transform="translate(0,680.31491)"
           id="path3010"
           inkscape:export-filename="/Users/peb/Documents/NAACL-HLT-2015/logo/g100.png"
           inkscape:export-xdpi="174.65131"
           inkscape:export-ydpi="174.65131"
           inkscape:connector-curvature="0" />
        <path
           style="font-size:64px;font-style:normal;font-variant:normal;font-weight:500;font-stretch:normal;line-height:125%;letter-spacing:0px;word-spacing:0px;fill:#000000;fill-opacity:1;stroke:none;font-family:Futura;-inkscape-font-specification:Futura Medium"
           d="m 57.53125,94.65625 -23.875,51.28125 7.84375,0 5.375,-11.71875 7.8125,0 3.1875,-6.84375 -7.96875,0 7.5,-16.40625 3.9375,9 3.84375,-8.25 -7.65625,-17.0625 z"
           transform="translate(0,680.31491)"
           id="path3012"
           inkscape:export-filename="/Users/peb/Documents/NAACL-HLT-2015/logo/g100.png"
           inkscape:export-xdpi="174.65131"
           inkscape:export-ydpi="174.65131"
           inkscape:connector-curvature="0" />
        <path
           style="font-size:64px;font-style:normal;font-variant:normal;font-weight:500;font-stretch:normal;line-height:125%;letter-spacing:0px;word-spacing:0px;fill:#000000;fill-opacity:1;stroke:none;font-family:Futura;-inkscape-font-specification:Futura Medium"
           d="m 120.6875,97.6875 0,0.125 c 1.64732,1.091164 3.20304,2.36156 4.65625,3.8125 0.006,0.006 -0.006,0.0252 0,0.0312 0.9193,0.91687 1.78188,1.87934 2.5625,2.875 l 43.34375,0 0,30.5625 7.28125,0 0,-30.5625 1891.70325,0 0,-6.84375 z"
           transform="translate(0,680.31491)"
           id="path3837"
           inkscape:connector-curvature="0"
           sodipodi:nodetypes="cccccccccccc"
           inkscape:export-filename="/Users/peb/Documents/NAACL-HLT-2015/logo/g100.png"
           inkscape:export-xdpi="174.65131"
           inkscape:export-ydpi="174.65131" />
        <path
           style="font-size:64px;font-style:normal;font-variant:normal;font-weight:500;font-stretch:normal;line-height:125%;letter-spacing:0px;word-spacing:0px;fill:#000000;fill-opacity:1;stroke:none;font-family:Futura;-inkscape-font-specification:Futura Medium"
           d="m 132.53125,108.53125 0,26.5625 7.28125,0 0,-9.84375 8.8125,0 0,9.84375 7.28125,0 0,-26.5625 -7.28125,0 0,9.875 -8.8125,0 0,-9.875 -7.28125,0 z"
           transform="translate(0,680.31491)"
           id="path3020"
           inkscape:export-filename="/Users/peb/Documents/NAACL-HLT-2015/logo/g100.png"
           inkscape:export-xdpi="174.65131"
           inkscape:export-ydpi="174.65131"
           inkscape:connector-curvature="0" />
        <path
           transform="translate(0,680.31491)"
           style="font-size:64px;font-style:normal;font-variant:normal;font-weight:500;font-stretch:normal;line-height:125%;letter-spacing:0px;word-spacing:0px;fill:#000000;fill-opacity:1;stroke:none;font-family:Futura;-inkscape-font-specification:Futura Medium"
           d="m 159.9375,108.53125 0,37.40625 1910.3697,0 0,-6.84375 -1903.08845,0 0,-30.5625 z"
           id="path3835"
           inkscape:connector-curvature="0"
           sodipodi:nodetypes="ccccccc"
           inkscape:export-filename="/Users/peb/Documents/NAACL-HLT-2015/logo/g100.png"
           inkscape:export-xdpi="174.65131"
           inkscape:export-ydpi="174.65131" />
        <g
           transform="scale(0.9834505,1.016828)"
           style="font-size:45.24116898px;font-style:normal;font-weight:normal;line-height:125%;letter-spacing:-3.39308786px;word-spacing:0px;fill:#000000;fill-opacity:1;stroke:none;font-family:Sans"
           id="text3897">
          <path
             d="m 202.7802,784.48029 -3.20313,-3.125 0.35938,-0.34375 c 0.40624,0.27085 0.71354,0.40626 0.92187,0.40625 0.11458,1e-5 0.26562,-0.0989 0.45313,-0.29688 2.27082,-2.41665 5.06249,-3.62498 8.375,-3.625 2.21873,2e-5 4.04165,0.57294 5.46875,1.71875 1.47914,1.1771 2.21873,2.68231 2.21875,4.51563 -2e-5,1.81251 -0.70315,3.31772 -2.10938,4.51562 -0.96876,0.82293 -2.57293,1.78647 -4.8125,2.89063 -1.70834,0.84375 -2.88542,1.45834 -3.53125,1.84375 -0.63542,0.38542 -1.27084,0.875 -1.90625,1.46875 -0.88542,0.82292 -1.51042,1.72917 -1.875,2.71875 l 13.26563,0 c 0.43748,0 0.74477,-0.0677 0.92187,-0.20313 0.18748,-0.13541 0.32811,-0.40104 0.42188,-0.79687 l 0.5,0 0,4.03125 -0.5,0 c -0.0938,-0.39584 -0.2344,-0.66146 -0.42188,-0.79688 -0.1771,-0.13542 -0.48439,-0.20312 -0.92187,-0.20312 l -14.65625,0 c -0.43751,0 -0.75001,0.0677 -0.9375,0.20312 -0.17709,0.13542 -0.31251,0.40104 -0.40625,0.79688 l -0.5,0 c 0.0104,-1.11459 0.17187,-2.09375 0.48437,-2.9375 0.3125,-0.85417 0.83333,-1.73958 1.5625,-2.65625 0.80208,-1.02083 1.77083,-1.92708 2.90625,-2.71875 1.13541,-0.79166 2.72916,-1.67187 4.78125,-2.64063 1.22916,-0.59374 2.12499,-1.0677 2.6875,-1.42187 0.5729,-0.35416 1.07811,-0.76562 1.51563,-1.23438 0.71873,-0.77082 1.0781,-1.66665 1.07812,-2.6875 -2e-5,-1.1354 -0.41668,-2.0729 -1.25,-2.8125 -1.09376,-0.97915 -2.52605,-1.46873 -4.29687,-1.46875 -2.00001,2e-5 -3.77605,0.65627 -5.32813,1.96875 -0.89584,0.77085 -1.34375,1.32293 -1.34375,1.65625 0,0.2396 0.14062,0.53127 0.42188,0.875 l -0.34375,0.35938"
             style="font-size:32px;font-variant:normal;font-stretch:normal;text-align:start;line-height:125%;letter-spacing:-3px;writing-mode:lr-tb;text-anchor:start;font-family:Copperplate Gothic Light;-inkscape-font-specification:'Copperplate Gothic Light,'"
             id="path3899"
             inkscape:connector-curvature="0" />
          <path
             d="m 229.95207,777.49591 c 2.64582,2e-5 4.91665,0.93231 6.8125,2.79688 0.98957,0.96876 1.77602,2.15626 2.35938,3.5625 0.62498,1.50001 0.93748,3.10938 0.9375,4.82812 -2e-5,2.14584 -0.56773,4.16667 -1.70313,6.0625 -1.03127,1.70834 -2.40627,2.98438 -4.125,3.82813 -1.35418,0.66666 -2.77605,1 -4.26562,1 -1.76043,0 -3.41147,-0.45834 -4.95313,-1.375 -1.64584,-0.96875 -2.92708,-2.36979 -3.84375,-4.20313 -0.86458,-1.70833 -1.29687,-3.53124 -1.29687,-5.46875 0,-2.24999 0.5677,-4.31769 1.70312,-6.20312 1.02083,-1.70832 2.39583,-2.98436 4.125,-3.82813 1.31249,-0.64581 2.72916,-0.97914 4.25,-1 m 0,2.14063 c -2.20834,2e-5 -4.06251,0.80731 -5.5625,2.42187 -1.57292,1.68752 -2.35938,3.84376 -2.35937,6.46875 -1e-5,2.62501 0.78645,4.78646 2.35937,6.48438 1.48958,1.61458 3.34895,2.42187 5.57813,2.42187 2.22915,0 4.08852,-0.80729 5.57812,-2.42187 1.5729,-1.69792 2.35936,-3.8177 2.35938,-6.35938 -2e-5,-2.72915 -0.78648,-4.92707 -2.35938,-6.59375 -1.50001,-1.59373 -3.36459,-2.40102 -5.59375,-2.42187"
             style="font-size:32px;font-variant:normal;font-stretch:normal;text-align:start;line-height:125%;letter-spacing:-3px;writing-mode:lr-tb;text-anchor:start;font-family:Copperplate Gothic Light;-inkscape-font-specification:'Copperplate Gothic Light,'"
             id="path3901"
             inkscape:connector-curvature="0" />
          <path
             d="m 246.48332,781.71466 c -0.87501,0.54168 -1.64063,0.85939 -2.29687,0.95313 -0.29168,0.0417 -0.47397,0.10418 -0.54688,0.1875 -0.0729,0.0729 -0.14584,0.28126 -0.21875,0.625 l -0.5,0 0,-4 0.5,0 c 0.0625,0.46876 0.11979,0.74481 0.17188,0.82812 0.0521,0.0833 0.18228,0.12502 0.39062,0.125 0.48958,2e-5 1.03645,-0.18227 1.64063,-0.54687 0.60415,-0.36457 0.90624,-0.6979 0.90625,-1 -1e-5,-0.20832 -0.29168,-0.36978 -0.875,-0.48438 l 0,-0.53125 4.17187,0 0,0.53125 c -0.39585,0.0938 -0.66147,0.22919 -0.79687,0.40625 -0.13543,0.1771 -0.20314,0.47919 -0.20313,0.90625 l 0,17.64063 c -1e-5,0.42708 0.0677,0.72916 0.20313,0.90625 0.1354,0.16666 0.40102,0.30208 0.79687,0.40625 l 0,0.53125 -4.34375,0 0,-0.53125 c 0.39582,-0.0937 0.66145,-0.22917 0.79688,-0.40625 0.1354,-0.17709 0.20311,-0.47917 0.20312,-0.90625 l 0,-15.64063"
             style="font-size:32px;font-variant:normal;font-stretch:normal;text-align:start;line-height:125%;letter-spacing:-3px;writing-mode:lr-tb;text-anchor:start;font-family:Copperplate Gothic Light;-inkscape-font-specification:'Copperplate Gothic Light,'"
             id="path3903"
             inkscape:connector-curvature="0" />
          <path
             d="m 258.0927,779.90216 0,6.625 c 1.88541,-1.3229 4.08332,-1.98436 6.59375,-1.98437 2.56248,1e-5 4.64061,0.62501 6.23437,1.875 1.71873,1.34376 2.57811,3.13542 2.57813,5.375 -2e-5,2.23958 -0.9219,4.11979 -2.76563,5.64062 -1.70835,1.42708 -3.8698,2.14063 -6.48437,2.14063 -1.60418,0 -3.04689,-0.21875 -4.32813,-0.65625 -1.28125,-0.4375 -2.65104,-1.18229 -4.10937,-2.23438 -0.22917,-0.16666 -0.41146,-0.25 -0.54688,-0.25 -0.16667,0 -0.40104,0.11459 -0.70312,0.34375 l -0.40625,-0.26562 2.59375,-3.40625 0.39062,0.3125 c -0.17709,0.32292 -0.26563,0.57813 -0.26562,0.76562 -10e-6,0.28126 0.45312,0.7448 1.35937,1.39063 1.71874,1.23958 3.72395,1.85937 6.01563,1.85937 2.37498,0 4.1979,-0.68229 5.46875,-2.04687 0.8854,-0.94792 1.3281,-2.13021 1.32812,-3.54688 -2e-5,-1.47916 -0.52085,-2.69791 -1.5625,-3.65625 -1.2396,-1.14582 -2.85939,-1.71874 -4.85937,-1.71875 -1.88543,10e-6 -3.52085,0.44272 -4.90625,1.32813 -0.75001,0.47917 -1.12501,0.84376 -1.125,1.09375 -10e-6,0.20834 0.10416,0.43751 0.3125,0.6875 l -0.29688,0.39062 -4.21875,-3.26562 0.34375,-0.35938 0.14063,0 c 0.37499,10e-6 0.61458,-0.0885 0.71875,-0.26562 0.10416,-0.18749 0.15624,-0.59895 0.15625,-1.23438 l 0,-5.125 c -1e-5,-0.43748 -0.0677,-0.74477 -0.20313,-0.92187 -0.13542,-0.18748 -0.40104,-0.32811 -0.79687,-0.42188 l 0,-0.5 15.57812,0 c 0.43748,2e-5 0.74477,-0.0677 0.92188,-0.20312 0.18748,-0.1354 0.3281,-0.40623 0.42187,-0.8125 l 0.5,0 0,4.03125 -0.5,0 c -0.0938,-0.3854 -0.23439,-0.64582 -0.42187,-0.78125 -0.17711,-0.1354 -0.4844,-0.20311 -0.92188,-0.20313 l -12.23437,0"
             style="font-size:32px;font-variant:normal;font-stretch:normal;text-align:start;line-height:125%;letter-spacing:-3px;writing-mode:lr-tb;text-anchor:start;font-family:Copperplate Gothic Light;-inkscape-font-specification:'Copperplate Gothic Light,'"
             id="path3905"
             inkscape:connector-curvature="0" />
        </g>
        <g
           id="g3251"
           style="font-size:40px;font-style:normal;font-weight:normal;line-height:110.00000238%;letter-spacing:0px;word-spacing:0px;fill:#000000;fill-opacity:1;stroke:#ffffff;stroke-width:0;stroke-miterlimit:4;stroke-opacity:1;stroke-dasharray:none;font-family:Sans">
          <path
             inkscape:connector-curvature="0"
             id="path3253"
             style="font-size:11px;font-variant:normal;font-stretch:normal;text-align:start;writing-mode:lr-tb;text-anchor:start;stroke:#ffffff;stroke-width:0;stroke-miterlimit:4;stroke-opacity:1;stroke-dasharray:none;font-family:Copperplate Gothic Light;-inkscape-font-specification:'Copperplate Gothic Light,'"
             d="m 288.43402,799.03076 -3.07764,-6.16064 0,5.52685 c 0,0.14681 0.0233,0.25244 0.0698,0.3169 0.0465,0.0609 0.13785,0.10921 0.27392,0.14502 l 0,0.17187 -1.45556,0 0,-0.17187 c 0.13606,-0.0358 0.22737,-0.0842 0.27392,-0.14502 0.0466,-0.0609 0.0698,-0.16651 0.0698,-0.3169 l 0,-6.06396 c 0,-0.15039 -0.0233,-0.25602 -0.0698,-0.3169 -0.0465,-0.0644 -0.13786,-0.11278 -0.27392,-0.14502 l 0,-0.17187 1.90137,0 0,0.17187 c -0.17546,0.0609 -0.26319,0.13608 -0.26319,0.22559 0,0.043 0.0591,0.18083 0.17725,0.41357 l 2.43847,4.83936 2.44922,-4.88232 c 0.0859,-0.17187 0.1289,-0.29362 0.12891,-0.36524 -1e-5,-0.0931 -0.0877,-0.17008 -0.26318,-0.23096 l 0,-0.17187 1.91748,0 0,0.17187 c -0.13608,0.0358 -0.22739,0.0842 -0.27393,0.14502 -0.0466,0.0609 -0.0698,0.16651 -0.0698,0.3169 l 0,6.06396 c -10e-6,0.14681 0.0233,0.25244 0.0698,0.3169 0.0465,0.0609 0.13785,0.10921 0.27393,0.14502 l 0,0.17187 -1.53077,0 0,-0.17187 c 0.13964,-0.0358 0.23095,-0.0842 0.27393,-0.14502 0.0465,-0.0609 0.0698,-0.16651 0.0698,-0.3169 l 0,-5.52685 -3.10986,6.16064" />
          <path
             inkscape:connector-curvature="0"
             id="path3255"
             style="font-size:11px;font-variant:normal;font-stretch:normal;text-align:start;writing-mode:lr-tb;text-anchor:start;stroke:#ffffff;stroke-width:0;stroke-miterlimit:4;stroke-opacity:1;stroke-dasharray:none;font-family:Copperplate Gothic Light;-inkscape-font-specification:'Copperplate Gothic Light,'"
             d="m 298.50482,797.33887 -3.15283,0 -0.45654,1.00976 c -0.0573,0.12533 -0.0859,0.21843 -0.0859,0.2793 0,0.12174 0.0931,0.20768 0.2793,0.25781 l 0,0.14502 -1.48243,0 0,-0.14502 c 0.14323,-0.0251 0.25424,-0.0806 0.33301,-0.1665 0.0824,-0.0895 0.17904,-0.25781 0.29004,-0.50488 l 1.99268,-4.32911 c 0.111,-0.2399 0.1665,-0.40461 0.1665,-0.49414 0,-0.12532 -0.0895,-0.2023 -0.26855,-0.23095 l 0,-0.14502 1.7456,0 0,0.14502 c -0.17904,0.0394 -0.26856,0.11638 -0.26855,0.23095 -10e-6,0.068 0.0716,0.25961 0.21484,0.57471 l 1.91211,4.1626 c 0.1289,0.27571 0.2399,0.46549 0.33301,0.56933 0.0931,0.10385 0.21125,0.16651 0.35449,0.18799 l 0,0.14502 -1.56836,0 0,-0.14502 c 0.16829,-0.0358 0.25244,-0.0967 0.25244,-0.18262 0,-0.043 -0.043,-0.16113 -0.1289,-0.35449 l -0.46192,-1.00976 m -0.25244,-0.58545 -1.31592,-2.94336 -1.32666,2.94336 2.64258,0" />
          <path
             inkscape:connector-curvature="0"
             id="path3257"
             style="font-size:11px;font-variant:normal;font-stretch:normal;text-align:start;writing-mode:lr-tb;text-anchor:start;stroke:#ffffff;stroke-width:0;stroke-miterlimit:4;stroke-opacity:1;stroke-dasharray:none;font-family:Copperplate Gothic Light;-inkscape-font-specification:'Copperplate Gothic Light,'"
             d="m 303.18304,796.37744 0,2.04639 c 0,0.14681 0.0215,0.25244 0.0645,0.31689 0.0465,0.0609 0.13964,0.10922 0.27929,0.14502 l 0,0.14502 -1.45556,0 0,-0.14502 c 0.13606,-0.0358 0.22737,-0.0841 0.27392,-0.14502 0.0466,-0.0644 0.0698,-0.17008 0.0698,-0.31689 l 0,-2.04639 -1.85303,-2.41699 c -0.22559,-0.2972 -0.39209,-0.49414 -0.49951,-0.59082 -0.10742,-0.0967 -0.23454,-0.1665 -0.38135,-0.20947 l 0,-0.14502 1.69727,0 0,0.14502 c -0.15756,0.0251 -0.23633,0.0931 -0.23633,0.2041 0,0.10026 0.0483,0.21306 0.14502,0.33838 l 1.58447,2.07861 1.43408,-2.07324 c 0.10026,-0.14681 0.15039,-0.25781 0.15039,-0.33301 0,-0.12174 -0.0806,-0.19335 -0.2417,-0.21484 l 0,-0.14502 1.56836,0 0,0.14502 c -0.16113,0.0537 -0.30973,0.14681 -0.4458,0.27929 -0.13607,0.12891 -0.32227,0.35808 -0.55859,0.6875 l -1.59522,2.25049" />
          <path
             inkscape:connector-curvature="0"
             id="path3259"
             style="font-size:11px;font-variant:normal;font-stretch:normal;text-align:start;writing-mode:lr-tb;text-anchor:start;stroke:#ffffff;stroke-width:0;stroke-miterlimit:4;stroke-opacity:1;stroke-dasharray:none;font-family:Copperplate Gothic Light;-inkscape-font-specification:'Copperplate Gothic Light,'"
             d="m 310.07953,793.84229 -0.97217,-1.10645 0.12354,-0.11816 c 0.11816,0.0895 0.2041,0.13428 0.25781,0.13427 0.0394,1e-5 0.16829,-0.0788 0.38672,-0.23633 0.45833,-0.33658 0.89697,-0.57828 1.31592,-0.72509 0.41894,-0.14681 0.87369,-0.22021 1.36425,-0.22022 0.83431,1e-5 1.52002,0.2059 2.05713,0.61768 0.22916,0.17546 0.4082,0.38672 0.53711,0.63379 0.13248,0.24707 0.19872,0.5031 0.19873,0.76806 -10e-6,0.69825 -0.40463,1.1906 -1.21387,1.47705 0.39746,0.10027 0.71256,0.24887 0.94532,0.44581 0.39745,0.34375 0.59618,0.79134 0.59619,1.34277 -1e-5,0.67318 -0.27751,1.21745 -0.83252,1.63281 -0.60157,0.44759 -1.37859,0.67139 -2.33106,0.67139 -0.51204,0 -0.99902,-0.0645 -1.46093,-0.19336 -0.45834,-0.12891 -0.94532,-0.33659 -1.46094,-0.62305 -0.0859,-0.0501 -0.14323,-0.0752 -0.17188,-0.0752 -0.068,0 -0.15755,0.0555 -0.26855,0.1665 l -0.14502,-0.0913 0.78418,-1.2998 0.14502,0.0859 c -0.0394,0.0931 -0.0591,0.16293 -0.0591,0.20948 0,0.0716 0.0591,0.15934 0.17724,0.26318 0.29362,0.25781 0.66244,0.46013 1.10645,0.60693 0.44401,0.14323 0.91308,0.21485 1.40723,0.21485 0.75552,0 1.34276,-0.17009 1.76171,-0.51026 0.15397,-0.12532 0.27571,-0.28466 0.36524,-0.47802 0.0931,-0.19336 0.13964,-0.38851 0.13965,-0.58545 -10e-6,-0.4082 -0.15756,-0.73763 -0.47266,-0.98828 -0.34375,-0.27214 -0.87728,-0.4082 -1.60059,-0.40821 l -0.6875,0 c -0.15039,10e-6 -0.25781,0.0233 -0.32226,0.0698 -0.0609,0.0465 -0.10743,0.13786 -0.13965,0.27392 l -0.17187,0 0,-1.38574 0.17187,0 c 0.0322,0.13607 0.0788,0.22738 0.13965,0.27393 0.0645,0.0465 0.17187,0.0698 0.32226,0.0698 l 0.56934,0 c 0.36881,1e-5 0.65706,-0.0215 0.86475,-0.0644 0.20767,-0.043 0.39387,-0.12174 0.55859,-0.23633 0.29361,-0.20052 0.44042,-0.47623 0.44043,-0.82715 -10e-6,-0.3509 -0.15577,-0.64273 -0.46729,-0.87549 -0.39746,-0.30077 -0.91488,-0.45116 -1.55224,-0.45117 -0.75554,10e-6 -1.41976,0.23276 -1.99268,0.69824 -0.25781,0.21127 -0.38672,0.3724 -0.38672,0.4834 0,0.043 0.0322,0.12354 0.0967,0.2417 l -0.12353,0.11817" />
          <path
             inkscape:connector-curvature="0"
             id="path3261"
             style="font-size:11px;font-variant:normal;font-stretch:normal;text-align:start;writing-mode:lr-tb;text-anchor:start;stroke:#ffffff;stroke-width:0;stroke-miterlimit:4;stroke-opacity:1;stroke-dasharray:none;font-family:Copperplate Gothic Light;-inkscape-font-specification:'Copperplate Gothic Light,'"
             d="m 319.10297,793.02051 c -0.30079,0.1862 -0.56397,0.29541 -0.78955,0.32763 -0.10027,0.0143 -0.16293,0.0358 -0.18799,0.0645 -0.0251,0.0251 -0.0501,0.0967 -0.0752,0.21484 l -0.17187,0 0,-1.375 0.17187,0 c 0.0215,0.16114 0.0412,0.25603 0.0591,0.28467 0.0179,0.0286 0.0627,0.043 0.13428,0.043 0.16829,0 0.35628,-0.0627 0.56397,-0.18799 0.20767,-0.12532 0.31152,-0.2399 0.31152,-0.34375 0,-0.0716 -0.10026,-0.12711 -0.30078,-0.1665 l 0,-0.18262 1.43408,0 0,0.18262 c -0.13607,0.0322 -0.22738,0.0788 -0.27393,0.13964 -0.0466,0.0609 -0.0698,0.16472 -0.0698,0.31153 l 0,6.06396 c 0,0.14681 0.0233,0.25065 0.0698,0.31153 0.0465,0.0573 0.13786,0.10384 0.27393,0.13964 l 0,0.18262 -1.49316,0 0,-0.18262 c 0.13606,-0.0322 0.22737,-0.0788 0.27392,-0.13964 0.0466,-0.0609 0.0698,-0.16472 0.0698,-0.31153 l 0,-5.37646" />
          <path
             inkscape:connector-curvature="0"
             id="path3263"
             style="font-size:11px;font-variant:normal;font-stretch:normal;text-align:start;writing-mode:lr-tb;text-anchor:start;stroke:#ffffff;stroke-width:0;stroke-miterlimit:4;stroke-opacity:1;stroke-dasharray:none;font-family:Copperplate Gothic Light;-inkscape-font-specification:'Copperplate Gothic Light,'"
             d="m 333.96478,795.33008 0,1.38574 -0.19873,0 c -0.043,-0.1289 -0.0967,-0.21842 -0.16113,-0.26855 -0.0645,-0.0501 -0.16114,-0.0752 -0.29004,-0.0752 l -6.23047,0 c -0.12891,0 -0.22559,0.0251 -0.29004,0.0752 -0.0645,0.0501 -0.11816,0.13965 -0.16113,0.26855 l -0.19873,0 0,-1.38574 0.19873,0 c 0.043,0.12891 0.0967,0.21843 0.16113,0.26855 0.0644,0.0501 0.16113,0.0752 0.29004,0.0752 l 6.23047,0 c 0.1289,0 0.22558,-0.0251 0.29004,-0.0752 0.0644,-0.0501 0.11816,-0.13964 0.16113,-0.26855 l 0.19873,0" />
          <path
             inkscape:connector-curvature="0"
             id="path3265"
             style="font-size:11px;font-variant:normal;font-stretch:normal;text-align:start;writing-mode:lr-tb;text-anchor:start;stroke:#ffffff;stroke-width:0;stroke-miterlimit:4;stroke-opacity:1;stroke-dasharray:none;font-family:Copperplate Gothic Light;-inkscape-font-specification:'Copperplate Gothic Light,'"
             d="m 337.20892,798.70312 0.63379,-1.36425 0.15576,0.0752 c -0.0394,0.11459 -0.0591,0.19515 -0.0591,0.2417 0,0.10384 0.13965,0.22738 0.41895,0.37061 0.52636,0.26855 1.07421,0.40283 1.64355,0.40283 0.43327,0 0.79671,-0.0806 1.09033,-0.2417 0.29362,-0.16471 0.48161,-0.39209 0.56397,-0.68213 0.0465,-0.16113 0.0698,-0.56038 0.0698,-1.19775 l 0,-3.97461 c 0,-0.15039 -0.0233,-0.25602 -0.0698,-0.3169 -0.0465,-0.0644 -0.13786,-0.11278 -0.27393,-0.14502 l 0,-0.17187 1.53076,0 0,0.17187 c -0.13607,0.0358 -0.22738,0.086 -0.27392,0.15039 -0.0466,0.0609 -0.0698,0.16472 -0.0698,0.31153 l 0,4.1626 c 0,0.46907 -0.0143,0.80029 -0.043,0.99365 -0.0287,0.19336 -0.0931,0.38314 -0.19336,0.56933 -0.20053,0.3724 -0.52996,0.65528 -0.98828,0.84864 -0.39389,0.16829 -0.84148,0.25244 -1.34278,0.25244 -0.37598,0 -0.69824,-0.0322 -0.96679,-0.0967 -0.26498,-0.0609 -0.65349,-0.19694 -1.16553,-0.4082 -0.11817,-0.0501 -0.20052,-0.0752 -0.24707,-0.0752 -0.0573,0 -0.14323,0.0662 -0.25781,0.19873 l -0.15577,-0.0752" />
          <path
             inkscape:connector-curvature="0"
             id="path3267"
             style="font-size:11px;font-variant:normal;font-stretch:normal;text-align:start;writing-mode:lr-tb;text-anchor:start;stroke:#ffffff;stroke-width:0;stroke-miterlimit:4;stroke-opacity:1;stroke-dasharray:none;font-family:Copperplate Gothic Light;-inkscape-font-specification:'Copperplate Gothic Light,'"
             d="m 345.21185,793.62207 0,3.08838 c 0,0.47624 0.0233,0.80566 0.0698,0.98828 0.0465,0.17904 0.1486,0.32943 0.30615,0.45117 0.32226,0.25782 0.87369,0.38672 1.6543,0.38672 0.86295,0 1.44661,-0.15755 1.75097,-0.47266 0.111,-0.11816 0.1844,-0.26318 0.22022,-0.43505 0.0358,-0.17546 0.0537,-0.48161 0.0537,-0.91846 l 0,-3.08838 c -1e-5,-0.1468 -0.0233,-0.25065 -0.0698,-0.31152 -0.0466,-0.0645 -0.13786,-0.11458 -0.27392,-0.15039 l 0,-0.14502 1.32666,0 0,0.14502 c -0.13608,0.0358 -0.22738,0.0842 -0.27393,0.14502 -0.0465,0.0609 -0.0698,0.16651 -0.0698,0.31689 l 0,3.24414 c -1e-5,0.55143 -0.0466,0.93994 -0.13965,1.16553 -0.15756,0.38672 -0.44581,0.67139 -0.86475,0.854 -0.41895,0.18262 -0.99544,0.27393 -1.72949,0.27393 -1.05273,0 -1.79036,-0.19515 -2.21289,-0.58545 -0.2041,-0.1862 -0.34196,-0.39567 -0.41357,-0.62842 -0.068,-0.23275 -0.10205,-0.59261 -0.10205,-1.07959 l 0,-3.24414 c 0,-0.15038 -0.0233,-0.25602 -0.0698,-0.31689 -0.0466,-0.0609 -0.13786,-0.10921 -0.27392,-0.14502 l 0,-0.14502 1.45556,0 0,0.14502 c -0.13607,0.0358 -0.22738,0.0859 -0.27392,0.15039 -0.0465,0.0609 -0.0698,0.16472 -0.0698,0.31152" />
          <path
             inkscape:connector-curvature="0"
             id="path3269"
             style="font-size:11px;font-variant:normal;font-stretch:normal;text-align:start;writing-mode:lr-tb;text-anchor:start;stroke:#ffffff;stroke-width:0;stroke-miterlimit:4;stroke-opacity:1;stroke-dasharray:none;font-family:Copperplate Gothic Light;-inkscape-font-specification:'Copperplate Gothic Light,'"
             d="m 352.41986,793.95508 0,4.46875 c 0,0.14681 0.0215,0.25244 0.0644,0.31689 0.0466,0.0609 0.13965,0.10922 0.2793,0.14502 l 0,0.14502 -1.32666,0 0,-0.14502 c 0.13965,-0.0358 0.23096,-0.0841 0.27393,-0.14502 0.0465,-0.0644 0.0698,-0.17008 0.0698,-0.31689 l 0,-4.80176 c 0,-0.15038 -0.0233,-0.25602 -0.0698,-0.31689 -0.0465,-0.0609 -0.13786,-0.10921 -0.27393,-0.14502 l 0,-0.14502 1.95508,0 0,0.14502 c -0.1862,0.0609 -0.2793,0.15397 -0.2793,0.27929 0,0.10743 0.068,0.23634 0.2041,0.38672 l 3.5503,3.97461 0,-4.17871 c -10e-6,-0.15038 -0.0233,-0.25602 -0.0698,-0.31689 -0.0466,-0.0609 -0.13786,-0.10921 -0.27392,-0.14502 l 0,-0.14502 1.32666,0 0,0.14502 c -0.13608,0.0358 -0.22739,0.0842 -0.27393,0.14502 -0.0466,0.0609 -0.0698,0.16651 -0.0698,0.31689 l 0,4.80176 c -10e-6,0.14681 0.0215,0.25244 0.0645,0.31689 0.0465,0.0609 0.13964,0.10922 0.2793,0.14502 l 0,0.14502 -1.57373,0 0,-0.14502 c 0.18619,-0.0466 0.27929,-0.11995 0.27929,-0.22021 0,-0.0752 -0.0859,-0.20947 -0.25781,-0.40283 l -3.87793,-4.30762" />
          <path
             inkscape:connector-curvature="0"
             id="path3271"
             style="font-size:11px;font-variant:normal;font-stretch:normal;text-align:start;writing-mode:lr-tb;text-anchor:start;stroke:#ffffff;stroke-width:0;stroke-miterlimit:4;stroke-opacity:1;stroke-dasharray:none;font-family:Copperplate Gothic Light;-inkscape-font-specification:'Copperplate Gothic Light,'"
             d="m 360.26166,796.21631 0,2.229 3.71679,0 c 0.15039,0 0.25602,-0.0233 0.3169,-0.0698 0.0645,-0.0466 0.11279,-0.13965 0.14502,-0.2793 l 0.15039,0 0,1.27832 -0.15039,0 c -0.0322,-0.13607 -0.0788,-0.22737 -0.13965,-0.27392 -0.0609,-0.0466 -0.16651,-0.0698 -0.31689,-0.0698 l -4.83399,0 0,-0.14502 c 0.13965,-0.0358 0.23096,-0.0841 0.27393,-0.14502 0.0466,-0.0644 0.0698,-0.17008 0.0698,-0.31689 l 0,-4.80176 c 0,-0.15038 -0.0233,-0.25602 -0.0698,-0.31689 -0.0465,-0.0609 -0.13786,-0.10921 -0.27393,-0.14502 l 0,-0.14502 4.79639,0 c 0.15038,0 0.25601,-0.0233 0.31689,-0.0698 0.0609,-0.0465 0.10921,-0.13785 0.14502,-0.27392 l 0.14502,0 0,1.27832 -0.14502,0 c -0.0358,-0.13965 -0.0842,-0.23275 -0.14502,-0.2793 -0.0609,-0.0465 -0.16651,-0.0698 -0.31689,-0.0698 l -3.68457,0 0,2.03027 2.34717,0 c 0.15038,0 0.25601,-0.0233 0.31689,-0.0698 0.0609,-0.0466 0.10921,-0.13786 0.14502,-0.27393 l 0.14502,0 0,1.27832 -0.14502,0 c -0.0358,-0.13965 -0.0859,-0.23275 -0.15039,-0.2793 -0.0609,-0.0465 -0.16472,-0.0698 -0.31152,-0.0698 l -2.34717,0" />
          <path
             inkscape:connector-curvature="0"
             id="path3273"
             style="font-size:11px;font-variant:normal;font-stretch:normal;text-align:start;writing-mode:lr-tb;text-anchor:start;stroke:#ffffff;stroke-width:0;stroke-miterlimit:4;stroke-opacity:1;stroke-dasharray:none;font-family:Copperplate Gothic Light;-inkscape-font-specification:'Copperplate Gothic Light,'"
             d="m 369.83295,792.39746 0,2.27734 c 0.64811,-0.45474 1.40364,-0.68212 2.2666,-0.68212 0.88085,0 1.59521,0.21484 2.14306,0.64453 0.59082,0.46192 0.88623,1.0778 0.88624,1.84765 -10e-6,0.76986 -0.31691,1.41618 -0.95069,1.93897 -0.58724,0.49056 -1.33024,0.73584 -2.229,0.73584 -0.55144,0 -1.04737,-0.0752 -1.4878,-0.22559 -0.44043,-0.15039 -0.91129,-0.40641 -1.41259,-0.76806 -0.0788,-0.0573 -0.14144,-0.0859 -0.18799,-0.0859 -0.0573,0 -0.13786,0.0394 -0.2417,0.11816 l -0.13965,-0.0913 0.8916,-1.17089 0.13428,0.10742 c -0.0609,0.111 -0.0913,0.19873 -0.0913,0.26318 0,0.0967 0.15576,0.25602 0.46729,0.47803 0.59081,0.42611 1.2801,0.63916 2.06787,0.63916 0.8164,0 1.44303,-0.23454 1.87988,-0.70362 0.30436,-0.32584 0.45654,-0.73225 0.45654,-1.21923 0,-0.50846 -0.17904,-0.92741 -0.53711,-1.25684 -0.42611,-0.39388 -0.98291,-0.59082 -1.67041,-0.59082 -0.64811,0 -1.21029,0.15219 -1.68652,0.45654 -0.25781,0.16472 -0.38672,0.29005 -0.38672,0.37598 0,0.0716 0.0358,0.15039 0.10742,0.23633 l -0.10205,0.13428 -1.45019,-1.12256 0.11816,-0.12354 0.0483,0 c 0.12891,10e-6 0.21126,-0.0304 0.24707,-0.0913 0.0358,-0.0644 0.0537,-0.20588 0.0537,-0.42431 l 0,-1.76172 c 0,-0.15039 -0.0233,-0.25602 -0.0698,-0.3169 -0.0466,-0.0644 -0.13786,-0.11278 -0.27393,-0.14502 l 0,-0.17187 5.35498,0 c 0.15039,10e-6 0.25602,-0.0233 0.3169,-0.0698 0.0644,-0.0465 0.11278,-0.13964 0.14502,-0.27929 l 0.17187,0 0,1.38574 -0.17187,0 c -0.0322,-0.13248 -0.0806,-0.222 -0.14502,-0.26855 -0.0609,-0.0466 -0.16651,-0.0698 -0.3169,-0.0698 l -4.20556,0" />
          <path
             inkscape:connector-curvature="0"
             id="path3275"
             style="font-size:11px;font-variant:normal;font-stretch:normal;text-align:start;line-height:110.00000238%;writing-mode:lr-tb;text-anchor:start;stroke:#ffffff;stroke-width:0;stroke-miterlimit:4;stroke-opacity:1;stroke-dasharray:none;font-family:Copperplate Gothic Light;-inkscape-font-specification:'Copperplate Gothic Light,'"
             d="m 284.58832,810.57217 0,-6.21436 c 0,-0.10741 -0.0251,-0.18977 -0.0752,-0.24707 -0.0501,-0.0573 -0.13965,-0.10383 -0.26855,-0.13965 l 0,-0.17187 3.86719,0 c 0.87727,10e-6 1.54865,0.12175 2.01416,0.36523 0.58723,0.30437 1.03482,0.77345 1.34277,1.40723 0.26855,0.55502 0.40282,1.18523 0.40283,1.89062 -10e-6,0.83432 -0.18083,1.55404 -0.54248,2.15918 -0.32585,0.53711 -0.73943,0.92383 -1.24072,1.16016 -0.49773,0.23275 -1.15658,0.34912 -1.97656,0.34912 l -3.86719,0 0,-0.17187 c 0.1289,-0.0358 0.21842,-0.0824 0.26855,-0.13965 0.0501,-0.0573 0.0752,-0.13965 0.0752,-0.24707 m 0.84326,-0.13965 2.64795,0 c 0.77701,0 1.35351,-0.11995 1.72949,-0.35986 0.444,-0.28646 0.76985,-0.7251 0.97754,-1.31592 0.13606,-0.39388 0.20409,-0.82536 0.2041,-1.29444 -10e-6,-0.8522 -0.21664,-1.55761 -0.6499,-2.11621 -0.23992,-0.30793 -0.53175,-0.52636 -0.87549,-0.65527 -0.34375,-0.1289 -0.80567,-0.19335 -1.38574,-0.19336 l -2.64795,0 0,5.93506" />
          <path
             inkscape:connector-curvature="0"
             id="path3277"
             style="font-size:11px;font-variant:normal;font-stretch:normal;text-align:start;line-height:110.00000238%;writing-mode:lr-tb;text-anchor:start;stroke:#ffffff;stroke-width:0;stroke-miterlimit:4;stroke-opacity:1;stroke-dasharray:none;font-family:Copperplate Gothic Light;-inkscape-font-specification:'Copperplate Gothic Light,'"
             d="m 294.26166,808.31631 0,2.229 3.71679,0 c 0.15039,0 0.25602,-0.0233 0.3169,-0.0698 0.0645,-0.0466 0.11279,-0.13965 0.14502,-0.2793 l 0.15039,0 0,1.27832 -0.15039,0 c -0.0322,-0.13607 -0.0788,-0.22737 -0.13965,-0.27392 -0.0609,-0.0466 -0.16651,-0.0698 -0.31689,-0.0698 l -4.83399,0 0,-0.14502 c 0.13965,-0.0358 0.23096,-0.0841 0.27393,-0.14502 0.0466,-0.0645 0.0698,-0.17008 0.0698,-0.31689 l 0,-4.80176 c 0,-0.15038 -0.0233,-0.25602 -0.0698,-0.31689 -0.0465,-0.0609 -0.13786,-0.10921 -0.27393,-0.14502 l 0,-0.14502 4.79639,0 c 0.15038,0 0.25601,-0.0233 0.31689,-0.0698 0.0609,-0.0465 0.10921,-0.13785 0.14502,-0.27392 l 0.14502,0 0,1.27832 -0.14502,0 c -0.0358,-0.13965 -0.0842,-0.23274 -0.14502,-0.2793 -0.0609,-0.0465 -0.16651,-0.0698 -0.31689,-0.0698 l -3.68457,0 0,2.03027 2.34717,0 c 0.15038,0 0.25601,-0.0233 0.31689,-0.0698 0.0609,-0.0465 0.10921,-0.13786 0.14502,-0.27393 l 0.14502,0 0,1.27832 -0.14502,0 c -0.0358,-0.13965 -0.0859,-0.23274 -0.15039,-0.2793 -0.0609,-0.0465 -0.16472,-0.0698 -0.31152,-0.0698 l -2.34717,0" />
          <path
             inkscape:connector-curvature="0"
             id="path3279"
             style="font-size:11px;font-variant:normal;font-stretch:normal;text-align:start;line-height:110.00000238%;writing-mode:lr-tb;text-anchor:start;stroke:#ffffff;stroke-width:0;stroke-miterlimit:4;stroke-opacity:1;stroke-dasharray:none;font-family:Copperplate Gothic Light;-inkscape-font-specification:'Copperplate Gothic Light,'"
             d="m 300.68549,806.05508 0,4.46875 c -1e-5,0.14681 0.0215,0.25244 0.0644,0.31689 0.0466,0.0609 0.13965,0.10922 0.2793,0.14502 l 0,0.14502 -1.32666,0 0,-0.14502 c 0.13964,-0.0358 0.23095,-0.0841 0.27392,-0.14502 0.0466,-0.0645 0.0698,-0.17008 0.0698,-0.31689 l 0,-4.80176 c -10e-6,-0.15038 -0.0233,-0.25602 -0.0698,-0.31689 -0.0465,-0.0609 -0.13786,-0.10921 -0.27392,-0.14502 l 0,-0.14502 1.95507,0 0,0.14502 c -0.1862,0.0609 -0.2793,0.15397 -0.27929,0.27929 -10e-6,0.10743 0.068,0.23634 0.2041,0.38672 l 3.55029,3.97461 0,-4.17871 c 0,-0.15038 -0.0233,-0.25602 -0.0698,-0.31689 -0.0466,-0.0609 -0.13787,-0.10921 -0.27393,-0.14502 l 0,-0.14502 1.32666,0 0,0.14502 c -0.13607,0.0358 -0.22738,0.0841 -0.27392,0.14502 -0.0466,0.0609 -0.0698,0.16651 -0.0698,0.31689 l 0,4.80176 c -10e-6,0.14681 0.0215,0.25244 0.0645,0.31689 0.0465,0.0609 0.13965,0.10922 0.2793,0.14502 l 0,0.14502 -1.57373,0 0,-0.14502 c 0.18619,-0.0465 0.27929,-0.11995 0.2793,-0.22021 -10e-6,-0.0752 -0.086,-0.20947 -0.25781,-0.40283 l -3.87793,-4.30762" />
          <path
             inkscape:connector-curvature="0"
             id="path3281"
             style="font-size:11px;font-variant:normal;font-stretch:normal;text-align:start;line-height:110.00000238%;writing-mode:lr-tb;text-anchor:start;stroke:#ffffff;stroke-width:0;stroke-miterlimit:4;stroke-opacity:1;stroke-dasharray:none;font-family:Copperplate Gothic Light;-inkscape-font-specification:'Copperplate Gothic Light,'"
             d="m 310.3266,810.27676 1.92822,-4.40967 c 0.0537,-0.11816 0.0806,-0.22021 0.0806,-0.30615 -10e-6,-0.16829 -0.10564,-0.26855 -0.3169,-0.30078 l 0,-0.14502 1.49317,0 0,0.14502 c -0.15398,0.043 -0.26677,0.10742 -0.33838,0.19336 -0.068,0.0859 -0.17188,0.28825 -0.31152,0.60693 l -1.83692,4.18408 c -0.0859,0.19694 -0.12891,0.34554 -0.1289,0.4458 -10e-6,0.15755 0.10025,0.25602 0.30078,0.29541 l 0,0.14502 -1.8584,0 0,-0.14502 c 0.20052,-0.043 0.30078,-0.14323 0.30078,-0.30078 0,-0.0967 -0.0448,-0.24349 -0.13428,-0.44043 l -1.89062,-4.18408 c -0.14681,-0.32584 -0.25424,-0.52994 -0.32227,-0.61231 -0.068,-0.0824 -0.17904,-0.14501 -0.33301,-0.18798 l 0,-0.14502 1.66504,0 0,0.14502 c -0.21126,0.0358 -0.31689,0.13249 -0.31689,0.29004 0,0.0895 0.0268,0.19515 0.0806,0.31689 l 1.93897,4.40967" />
          <path
             inkscape:connector-curvature="0"
             id="path3283"
             style="font-size:11px;font-variant:normal;font-stretch:normal;text-align:start;line-height:110.00000238%;writing-mode:lr-tb;text-anchor:start;stroke:#ffffff;stroke-width:0;stroke-miterlimit:4;stroke-opacity:1;stroke-dasharray:none;font-family:Copperplate Gothic Light;-inkscape-font-specification:'Copperplate Gothic Light,'"
             d="m 315.45599,808.31631 0,2.229 3.7168,0 c 0.15039,0 0.25602,-0.0233 0.3169,-0.0698 0.0644,-0.0466 0.11278,-0.13965 0.14501,-0.2793 l 0.1504,0 0,1.27832 -0.1504,0 c -0.0322,-0.13607 -0.0788,-0.22737 -0.13964,-0.27392 -0.0609,-0.0466 -0.16651,-0.0698 -0.3169,-0.0698 l -4.83398,0 0,-0.14502 c 0.13964,-0.0358 0.23095,-0.0841 0.27392,-0.14502 0.0465,-0.0645 0.0698,-0.17008 0.0698,-0.31689 l 0,-4.80176 c 0,-0.15038 -0.0233,-0.25602 -0.0698,-0.31689 -0.0466,-0.0609 -0.13786,-0.10921 -0.27392,-0.14502 l 0,-0.14502 4.79638,0 c 0.15039,0 0.25602,-0.0233 0.3169,-0.0698 0.0609,-0.0465 0.1092,-0.13785 0.14502,-0.27392 l 0.14502,0 0,1.27832 -0.14502,0 c -0.0358,-0.13965 -0.0842,-0.23274 -0.14502,-0.2793 -0.0609,-0.0465 -0.16651,-0.0698 -0.3169,-0.0698 l -3.68457,0 0,2.03027 2.34717,0 c 0.15039,0 0.25602,-0.0233 0.3169,-0.0698 0.0609,-0.0465 0.1092,-0.13786 0.14502,-0.27393 l 0.14502,0 0,1.27832 -0.14502,0 c -0.0358,-0.13965 -0.086,-0.23274 -0.15039,-0.2793 -0.0609,-0.0465 -0.16472,-0.0698 -0.31153,-0.0698 l -2.34717,0" />
          <path
             inkscape:connector-curvature="0"
             id="path3285"
             style="font-size:11px;font-variant:normal;font-stretch:normal;text-align:start;line-height:110.00000238%;writing-mode:lr-tb;text-anchor:start;stroke:#ffffff;stroke-width:0;stroke-miterlimit:4;stroke-opacity:1;stroke-dasharray:none;font-family:Copperplate Gothic Light;-inkscape-font-specification:'Copperplate Gothic Light,'"
             d="m 322.01947,808.40762 0,2.11621 c 0,0.14681 0.0233,0.25244 0.0698,0.31689 0.0465,0.0609 0.13786,0.10922 0.27393,0.14502 l 0,0.14502 -1.45557,0 0,-0.14502 c 0.13965,-0.0358 0.23096,-0.0841 0.27393,-0.14502 0.0466,-0.0645 0.0698,-0.17008 0.0698,-0.31689 l 0,-4.80176 c 0,-0.15038 -0.0233,-0.25602 -0.0698,-0.31689 -0.0466,-0.0609 -0.13786,-0.10921 -0.27393,-0.14502 l 0,-0.14502 3.57178,0 c 0.40462,0 0.73405,0.0286 0.98828,0.0859 0.25781,0.0573 0.4816,0.15398 0.67139,0.29004 0.41536,0.29363 0.62304,0.72332 0.62305,1.28907 -1e-5,0.46191 -0.14503,0.82715 -0.43506,1.0957 -0.29005,0.26498 -0.71615,0.42432 -1.27832,0.47803 l 1.50927,2.3955 c 0.0537,0.0859 0.10563,0.14502 0.15577,0.17725 0.0537,0.0287 0.1468,0.0519 0.27929,0.0698 l 0,0.13428 -1.48779,0 0,-0.14502 c 0.13964,-0.0286 0.20947,-0.0734 0.20947,-0.13427 0,-0.043 -0.0412,-0.12891 -0.12353,-0.25782 l -1.38574,-2.18603 -2.18604,0 m 0,-0.58545 2.28809,0 c 0.36881,0 0.64452,-0.0125 0.82714,-0.0376 0.1862,-0.0286 0.34375,-0.0788 0.47266,-0.15039 0.28287,-0.15755 0.42431,-0.43147 0.42432,-0.82178 -10e-6,-0.37597 -0.1325,-0.65885 -0.39746,-0.84863 -0.2435,-0.17545 -0.65707,-0.26318 -1.24073,-0.26318 l -2.37402,0 0,2.12158" />
          <path
             inkscape:connector-curvature="0"
             id="path3287"
             style="font-size:11px;font-variant:normal;font-stretch:normal;text-align:start;line-height:110.00000238%;writing-mode:lr-tb;text-anchor:start;stroke:#ffffff;stroke-width:0;stroke-miterlimit:4;stroke-opacity:1;stroke-dasharray:none;font-family:Copperplate Gothic Light;-inkscape-font-specification:'Copperplate Gothic Light,'"
             d="m 328.43256,812.37686 -0.16114,-0.18799 c 0.23633,-0.14681 0.40821,-0.29183 0.51563,-0.43506 0.10742,-0.13965 0.17903,-0.31511 0.21484,-0.52637 -0.0967,0.0215 -0.17187,0.0322 -0.22558,0.0322 -0.16472,0 -0.29721,-0.0519 -0.39746,-0.15576 -0.10027,-0.10743 -0.1504,-0.24707 -0.1504,-0.41895 0,-0.17545 0.0519,-0.31868 0.15577,-0.42969 0.10742,-0.11458 0.24348,-0.17187 0.4082,-0.17187 0.1862,0 0.3348,0.077 0.4458,0.23096 0.111,0.15397 0.1665,0.35986 0.1665,0.61767 0,0.31869 -0.077,0.59082 -0.23095,0.81641 -0.1504,0.22558 -0.39747,0.43506 -0.74121,0.62842" />
          <path
             inkscape:connector-curvature="0"
             id="path3289"
             style="font-size:11px;font-variant:normal;font-stretch:normal;text-align:start;line-height:110.00000238%;writing-mode:lr-tb;text-anchor:start;stroke:#ffffff;stroke-width:0;stroke-miterlimit:4;stroke-opacity:1;stroke-dasharray:none;font-family:Copperplate Gothic Light;-inkscape-font-specification:'Copperplate Gothic Light,'"
             d="m 341.64545,804.43301 -0.79493,1.32666 -0.14501,-0.0859 c 0.0322,-0.10742 0.0483,-0.19156 0.0483,-0.25244 -10e-6,-0.1468 -0.22918,-0.33121 -0.6875,-0.55322 -0.63022,-0.30794 -1.31772,-0.46191 -2.0625,-0.46192 -1.00261,10e-6 -1.81544,0.27752 -2.43848,0.83252 -0.63379,0.56576 -0.95069,1.29802 -0.95068,2.19678 -10e-6,0.89518 0.32942,1.63819 0.98828,2.229 0.63736,0.5765 1.42333,0.86475 2.35791,0.86475 0.91308,0 1.71874,-0.26676 2.41699,-0.80029 0.3151,-0.23991 0.47265,-0.41 0.47265,-0.51026 0,-0.0501 -0.0304,-0.13248 -0.0913,-0.24707 l 0.1289,-0.10205 0.95606,1.16016 -0.13428,0.10742 c -0.10027,-0.0895 -0.18263,-0.13428 -0.24707,-0.13428 -0.0394,0 -0.10743,0.0376 -0.2041,0.1128 -0.32944,0.24707 -0.60336,0.43326 -0.82178,0.55859 -0.21485,0.12174 -0.45118,0.22559 -0.70898,0.31152 -0.53354,0.18262 -1.12078,0.27393 -1.76172,0.27393 -1.23536,0 -2.23975,-0.34375 -3.01319,-1.03125 -0.81282,-0.71973 -1.21923,-1.63818 -1.21923,-2.75537 0,-0.88086 0.25423,-1.64355 0.76269,-2.28809 0.79492,-1.00976 1.98551,-1.51464 3.57178,-1.51465 1.04915,10e-6 2.06428,0.27752 3.04541,0.83252 0.0644,0.0358 0.1092,0.0537 0.13428,0.0537 0.0465,1e-5 0.13068,-0.068 0.25244,-0.2041 l 0.14502,0.0806" />
          <path
             inkscape:connector-curvature="0"
             id="path3291"
             style="font-size:11px;font-variant:normal;font-stretch:normal;text-align:start;line-height:110.00000238%;writing-mode:lr-tb;text-anchor:start;stroke:#ffffff;stroke-width:0;stroke-miterlimit:4;stroke-opacity:1;stroke-dasharray:none;font-family:Copperplate Gothic Light;-inkscape-font-specification:'Copperplate Gothic Light,'"
             d="m 346.54926,804.98623 c 1.07063,10e-6 1.93358,0.2793 2.58886,0.83789 0.69824,0.59083 1.04736,1.37142 1.04737,2.3418 -1e-5,0.60514 -0.17189,1.16016 -0.51563,1.66504 -0.64812,0.95247 -1.68474,1.42871 -3.10986,1.42871 -1.06348,0 -1.92286,-0.2793 -2.57813,-0.83789 -0.69824,-0.5944 -1.04736,-1.36068 -1.04736,-2.29883 0,-0.63379 0.17008,-1.20312 0.51025,-1.70801 0.36166,-0.53352 0.86833,-0.92203 1.52002,-1.16553 0.44759,-0.16828 0.97575,-0.25601 1.58448,-0.26318 m 0,0.62305 c -0.87371,0 -1.57732,0.26856 -2.11084,0.80566 -0.4655,0.4655 -0.69825,1.03484 -0.69825,1.70801 0,0.67318 0.23275,1.24251 0.69825,1.70801 0.53352,0.53711 1.24071,0.80566 2.12158,0.80566 0.88085,0 1.58805,-0.26855 2.12158,-0.80566 0.46549,-0.4655 0.69823,-1.02409 0.69824,-1.67578 -10e-6,-0.7054 -0.23275,-1.28548 -0.69824,-1.74024 -0.53712,-0.52994 -1.24789,-0.7985 -2.13232,-0.80566" />
          <path
             inkscape:connector-curvature="0"
             id="path3293"
             style="font-size:11px;font-variant:normal;font-stretch:normal;text-align:start;line-height:110.00000238%;writing-mode:lr-tb;text-anchor:start;stroke:#ffffff;stroke-width:0;stroke-miterlimit:4;stroke-opacity:1;stroke-dasharray:none;font-family:Copperplate Gothic Light;-inkscape-font-specification:'Copperplate Gothic Light,'"
             d="m 352.44135,810.54531 3.66845,0 c 0.15039,0 0.25602,-0.0233 0.3169,-0.0698 0.0644,-0.0466 0.11457,-0.13965 0.15039,-0.2793 l 0.14502,0 0,1.27832 -0.14502,0 c -0.0358,-0.13607 -0.086,-0.22737 -0.15039,-0.27392 -0.0609,-0.0466 -0.16651,-0.0698 -0.3169,-0.0698 l -4.78027,0 0,-0.14502 c 0.13607,-0.0358 0.22737,-0.0841 0.27392,-0.14502 0.0465,-0.0645 0.0698,-0.17008 0.0698,-0.31689 l 0,-4.80176 c 0,-0.15038 -0.0233,-0.25602 -0.0698,-0.31689 -0.0466,-0.0609 -0.13785,-0.10921 -0.27392,-0.14502 l 0,-0.14502 1.45557,0 0,0.14502 c -0.13607,0.0358 -0.22738,0.0841 -0.27393,0.14502 -0.0465,0.0609 -0.0698,0.16651 -0.0698,0.31689 l 0,4.82324" />
          <path
             inkscape:connector-curvature="0"
             id="path3295"
             style="font-size:11px;font-variant:normal;font-stretch:normal;text-align:start;line-height:110.00000238%;writing-mode:lr-tb;text-anchor:start;stroke:#ffffff;stroke-width:0;stroke-miterlimit:4;stroke-opacity:1;stroke-dasharray:none;font-family:Copperplate Gothic Light;-inkscape-font-specification:'Copperplate Gothic Light,'"
             d="m 360.96527,804.98623 c 1.07063,10e-6 1.93359,0.2793 2.58887,0.83789 0.69823,0.59083 1.04735,1.37142 1.04736,2.3418 -10e-6,0.60514 -0.17188,1.16016 -0.51562,1.66504 -0.64812,0.95247 -1.68474,1.42871 -3.10987,1.42871 -1.06348,0 -1.92285,-0.2793 -2.57812,-0.83789 -0.69824,-0.5944 -1.04737,-1.36068 -1.04737,-2.29883 0,-0.63379 0.17009,-1.20312 0.51026,-1.70801 0.36165,-0.53352 0.86832,-0.92203 1.52002,-1.16553 0.44759,-0.16828 0.97574,-0.25601 1.58447,-0.26318 m 0,0.62305 c -0.8737,0 -1.57731,0.26856 -2.11084,0.80566 -0.4655,0.4655 -0.69824,1.03484 -0.69824,1.70801 0,0.67318 0.23274,1.24251 0.69824,1.70801 0.53353,0.53711 1.24072,0.80566 2.12158,0.80566 0.88086,0 1.58805,-0.26855 2.12159,-0.80566 0.46548,-0.4655 0.69823,-1.02409 0.69824,-1.67578 -10e-6,-0.7054 -0.23276,-1.28548 -0.69824,-1.74024 -0.53712,-0.52994 -1.24789,-0.7985 -2.13233,-0.80566" />
          <path
             inkscape:connector-curvature="0"
             id="path3297"
             style="font-size:11px;font-variant:normal;font-stretch:normal;text-align:start;line-height:110.00000238%;writing-mode:lr-tb;text-anchor:start;stroke:#ffffff;stroke-width:0;stroke-miterlimit:4;stroke-opacity:1;stroke-dasharray:none;font-family:Copperplate Gothic Light;-inkscape-font-specification:'Copperplate Gothic Light,'"
             d="m 366.85736,808.40762 0,2.11621 c 0,0.14681 0.0233,0.25244 0.0698,0.31689 0.0465,0.0609 0.13785,0.10922 0.27392,0.14502 l 0,0.14502 -1.45557,0 0,-0.14502 c 0.13965,-0.0358 0.23096,-0.0841 0.27393,-0.14502 0.0465,-0.0645 0.0698,-0.17008 0.0698,-0.31689 l 0,-4.80176 c 0,-0.15038 -0.0233,-0.25602 -0.0698,-0.31689 -0.0466,-0.0609 -0.13786,-0.10921 -0.27393,-0.14502 l 0,-0.14502 3.57178,0 c 0.40462,0 0.73405,0.0286 0.98828,0.0859 0.25781,0.0573 0.48161,0.15398 0.67139,0.29004 0.41536,0.29363 0.62304,0.72332 0.62305,1.28907 -10e-6,0.46191 -0.14503,0.82715 -0.43506,1.0957 -0.29005,0.26498 -0.71615,0.42432 -1.27832,0.47803 l 1.50928,2.3955 c 0.0537,0.0859 0.10562,0.14502 0.15576,0.17725 0.0537,0.0287 0.1468,0.0519 0.27929,0.0698 l 0,0.13428 -1.48779,0 0,-0.14502 c 0.13964,-0.0286 0.20947,-0.0734 0.20947,-0.13427 0,-0.043 -0.0412,-0.12891 -0.12353,-0.25782 l -1.38574,-2.18603 -2.18604,0 m 0,-0.58545 2.28809,0 c 0.36881,0 0.64452,-0.0125 0.82715,-0.0376 0.18619,-0.0286 0.34374,-0.0788 0.47265,-0.15039 0.28287,-0.15755 0.42431,-0.43147 0.42432,-0.82178 -10e-6,-0.37597 -0.13249,-0.65885 -0.39746,-0.84863 -0.2435,-0.17545 -0.65707,-0.26318 -1.24073,-0.26318 l -2.37402,0 0,2.12158" />
          <path
             inkscape:connector-curvature="0"
             id="path3299"
             style="font-size:11px;font-variant:normal;font-stretch:normal;text-align:start;line-height:110.00000238%;writing-mode:lr-tb;text-anchor:start;stroke:#ffffff;stroke-width:0;stroke-miterlimit:4;stroke-opacity:1;stroke-dasharray:none;font-family:Copperplate Gothic Light;-inkscape-font-specification:'Copperplate Gothic Light,'"
             d="m 377.3847,809.43887 -3.15283,0 -0.45654,1.00976 c -0.0573,0.12533 -0.0859,0.21843 -0.0859,0.2793 0,0.12175 0.0931,0.20768 0.2793,0.25781 l 0,0.14502 -1.48242,0 0,-0.14502 c 0.14323,-0.0251 0.25423,-0.0806 0.333,-0.1665 0.0824,-0.0895 0.17904,-0.25781 0.29004,-0.50488 l 1.99268,-4.32911 c 0.111,-0.2399 0.1665,-0.40461 0.1665,-0.49414 0,-0.12532 -0.0895,-0.2023 -0.26855,-0.23095 l 0,-0.14502 1.7456,0 0,0.14502 c -0.17904,0.0394 -0.26855,0.11638 -0.26855,0.23095 0,0.068 0.0716,0.25961 0.21484,0.57471 l 1.91211,4.1626 c 0.1289,0.27572 0.23991,0.46549 0.33301,0.56933 0.0931,0.10385 0.21126,0.16651 0.35449,0.18799 l 0,0.14502 -1.56836,0 0,-0.14502 c 0.16829,-0.0358 0.25244,-0.0967 0.25244,-0.18261 0,-0.043 -0.043,-0.16114 -0.1289,-0.3545 l -0.46192,-1.00976 m -0.25244,-0.58545 -1.31591,-2.94336 -1.32666,2.94336 2.64257,0" />
          <path
             inkscape:connector-curvature="0"
             id="path3301"
             style="font-size:11px;font-variant:normal;font-stretch:normal;text-align:start;line-height:110.00000238%;writing-mode:lr-tb;text-anchor:start;stroke:#ffffff;stroke-width:0;stroke-miterlimit:4;stroke-opacity:1;stroke-dasharray:none;font-family:Copperplate Gothic Light;-inkscape-font-specification:'Copperplate Gothic Light,'"
             d="m 380.26898,810.52383 0,-4.80176 c 0,-0.1468 -0.0233,-0.25064 -0.0698,-0.31152 -0.043,-0.0644 -0.13428,-0.11458 -0.27393,-0.15039 l 0,-0.14502 3.04004,0 c 0.81282,0 1.41796,0.0949 1.81543,0.28466 0.49414,0.23992 0.88085,0.63738 1.16016,1.19239 0.24348,0.47982 0.36522,0.99007 0.36523,1.53076 -10e-6,0.63379 -0.16114,1.21566 -0.4834,1.7456 -0.2793,0.46192 -0.63379,0.78777 -1.06347,0.97754 -0.42612,0.18978 -1.0241,0.28467 -1.79395,0.28467 l -3.04004,0 0,-0.14502 c 0.13965,-0.0358 0.23096,-0.0841 0.27393,-0.14502 0.0465,-0.0645 0.0698,-0.17008 0.0698,-0.31689 m 0.76807,0.0215 1.88525,0 c 0.71256,0 1.23356,-0.0967 1.56299,-0.29004 0.36523,-0.21126 0.63736,-0.54427 0.81641,-0.99902 0.13248,-0.34375 0.19872,-0.72151 0.19873,-1.1333 -10e-6,-0.73405 -0.188,-1.32129 -0.56397,-1.76172 -0.20769,-0.2399 -0.4655,-0.40999 -0.77344,-0.51025 -0.30436,-0.10026 -0.71794,-0.15039 -1.24072,-0.15039 l -1.88525,0 0,4.84472" />
          <path
             inkscape:connector-curvature="0"
             id="path3303"
             style="font-size:11px;font-variant:normal;font-stretch:normal;text-align:start;line-height:110.00000238%;writing-mode:lr-tb;text-anchor:start;stroke:#ffffff;stroke-width:0;stroke-miterlimit:4;stroke-opacity:1;stroke-dasharray:none;font-family:Copperplate Gothic Light;-inkscape-font-specification:'Copperplate Gothic Light,'"
             d="m 390.91449,804.98623 c 1.07063,10e-6 1.93359,0.2793 2.58887,0.83789 0.69823,0.59083 1.04735,1.37142 1.04736,2.3418 -1e-5,0.60514 -0.17188,1.16016 -0.51562,1.66504 -0.64812,0.95247 -1.68474,1.42871 -3.10987,1.42871 -1.06348,0 -1.92285,-0.2793 -2.57812,-0.83789 -0.69825,-0.5944 -1.04737,-1.36068 -1.04737,-2.29883 0,-0.63379 0.17009,-1.20312 0.51026,-1.70801 0.36165,-0.53352 0.86832,-0.92203 1.52002,-1.16553 0.44759,-0.16828 0.97574,-0.25601 1.58447,-0.26318 m 0,0.62305 c -0.8737,0 -1.57731,0.26856 -2.11084,0.80566 -0.4655,0.4655 -0.69824,1.03484 -0.69824,1.70801 0,0.67318 0.23274,1.24251 0.69824,1.70801 0.53353,0.53711 1.24072,0.80566 2.12158,0.80566 0.88086,0 1.58805,-0.26855 2.12158,-0.80566 0.46549,-0.4655 0.69824,-1.02409 0.69825,-1.67578 -1e-5,-0.7054 -0.23276,-1.28548 -0.69825,-1.74024 -0.53711,-0.52994 -1.24789,-0.7985 -2.13232,-0.80566" />
          <path
             inkscape:connector-curvature="0"
             id="path3305"
             style="font-size:11px;font-variant:normal;font-stretch:normal;text-align:start;line-height:110.00000238%;writing-mode:lr-tb;text-anchor:start;stroke:#ffffff;stroke-width:0;stroke-miterlimit:4;stroke-opacity:1;stroke-dasharray:none;font-family:Copperplate Gothic Light;-inkscape-font-specification:'Copperplate Gothic Light,'"
             d="m 396.20502,812.37686 -0.16114,-0.18799 c 0.23633,-0.14681 0.40821,-0.29183 0.51563,-0.43506 0.10742,-0.13965 0.17903,-0.31511 0.21484,-0.52637 -0.0967,0.0215 -0.17187,0.0322 -0.22558,0.0322 -0.16472,0 -0.2972,-0.0519 -0.39746,-0.15576 -0.10027,-0.10743 -0.1504,-0.24707 -0.15039,-0.41895 -1e-5,-0.17545 0.0519,-0.31868 0.15576,-0.42969 0.10742,-0.11458 0.24349,-0.17187 0.4082,-0.17187 0.1862,0 0.3348,0.077 0.4458,0.23096 0.111,0.15397 0.1665,0.35986 0.16651,0.61767 -10e-6,0.31869 -0.077,0.59082 -0.23096,0.81641 -0.15039,0.22558 -0.39746,0.43506 -0.74121,0.62842" />
          <path
             inkscape:connector-curvature="0"
             id="path3307"
             style="font-size:11px;font-variant:normal;font-stretch:normal;text-align:start;line-height:110.00000238%;writing-mode:lr-tb;text-anchor:start;stroke:#ffffff;stroke-width:0;stroke-miterlimit:4;stroke-opacity:1;stroke-dasharray:none;font-family:Copperplate Gothic Light;-inkscape-font-specification:'Copperplate Gothic Light,'"
             d="m 402.72015,804.43301 0,4.05517 c 0,0.47982 0.0251,0.8182 0.0752,1.01514 0.0501,0.19336 0.15397,0.36166 0.31152,0.50488 0.38314,0.34375 1.09749,0.51563 2.14307,0.51563 1.13867,0 1.88525,-0.20231 2.23975,-0.60694 0.11815,-0.13606 0.19693,-0.29719 0.23632,-0.48339 0.0394,-0.18978 0.0591,-0.50488 0.0591,-0.94532 l 0,-4.05517 c -10e-6,-0.1468 -0.0233,-0.25065 -0.0698,-0.31153 -0.0466,-0.0644 -0.13786,-0.11457 -0.27392,-0.15039 l 0,-0.17187 1.45556,0 0,0.17187 c -0.13607,0.0322 -0.22738,0.0806 -0.27392,0.14502 -0.0466,0.0609 -0.0698,0.16651 -0.0698,0.3169 l 0,4.22168 c -10e-6,0.51921 -0.0501,0.91488 -0.15039,1.18701 -0.1862,0.48698 -0.53712,0.84505 -1.05273,1.07422 -0.51205,0.22916 -1.22283,0.34375 -2.13233,0.34375 -1.36068,0 -2.29167,-0.26319 -2.79297,-0.78955 -0.2041,-0.21126 -0.34733,-0.45117 -0.42968,-0.71973 -0.0788,-0.27213 -0.11817,-0.63737 -0.11817,-1.0957 l 0,-4.22168 c 0,-0.15039 -0.0233,-0.25602 -0.0698,-0.3169 -0.0466,-0.0644 -0.13786,-0.11278 -0.27393,-0.14502 l 0,-0.17187 1.53076,0 0,0.17187 c -0.13607,0.0358 -0.22737,0.086 -0.27392,0.15039 -0.0466,0.0609 -0.0698,0.16473 -0.0698,0.31153" />
          <path
             inkscape:connector-curvature="0"
             id="path3309"
             style="font-size:11px;font-variant:normal;font-stretch:normal;text-align:start;line-height:110.00000238%;writing-mode:lr-tb;text-anchor:start;stroke:#ffffff;stroke-width:0;stroke-miterlimit:4;stroke-opacity:1;stroke-dasharray:none;font-family:Copperplate Gothic Light;-inkscape-font-specification:'Copperplate Gothic Light,'"
             d="m 417.23822,804.25039 -0.76807,1.38574 -0.15039,-0.0806 c 0.0609,-0.16113 0.0913,-0.26139 0.0913,-0.30078 -1e-5,-0.10742 -0.13249,-0.22379 -0.39746,-0.34913 -0.71973,-0.33658 -1.48243,-0.50487 -2.28809,-0.50488 -0.66243,10e-6 -1.23893,0.12354 -1.72949,0.37061 -0.23633,0.12175 -0.42432,0.2793 -0.56396,0.47265 -0.13607,0.19337 -0.20411,0.39747 -0.2041,0.61231 -10e-6,0.17904 0.0537,0.34912 0.16113,0.51025 0.10742,0.15756 0.24886,0.27572 0.42432,0.35449 0.19335,0.0895 0.42073,0.15219 0.68212,0.18799 0.26498,0.0322 0.69466,0.0573 1.28907,0.0752 0.82356,0.0251 1.41259,0.0644 1.76709,0.11816 0.35448,0.0501 0.64631,0.13965 0.87549,0.26856 0.60871,0.34017 0.91307,0.85758 0.91308,1.55224 -10e-6,0.66244 -0.27572,1.20492 -0.82715,1.62744 -0.61231,0.47266 -1.45557,0.70899 -2.52978,0.70899 -0.61947,0 -1.16016,-0.0627 -1.62207,-0.18799 -0.46192,-0.12533 -1.01335,-0.35628 -1.6543,-0.69287 -0.17904,-0.0824 -0.28467,-0.12354 -0.31689,-0.12354 -0.0537,0 -0.13786,0.0645 -0.25245,0.19336 l -0.14502,-0.0913 0.80567,-1.34814 0.15039,0.0859 c -0.068,0.14323 -0.10205,0.23991 -0.10205,0.29004 0,0.11458 0.22916,0.29183 0.6875,0.53173 0.41178,0.21485 0.80745,0.37061 1.18701,0.46729 0.38313,0.0931 0.7985,0.13965 1.24609,0.13965 0.90592,0 1.59342,-0.19873 2.0625,-0.59619 0.31152,-0.26498 0.46728,-0.58008 0.46729,-0.94532 -1e-5,-0.47981 -0.26677,-0.81103 -0.80029,-0.99365 -0.17188,-0.0609 -0.35092,-0.0985 -0.53711,-0.11279 -0.18263,-0.0179 -0.70541,-0.043 -1.56836,-0.0752 -0.61589,-0.0251 -1.09929,-0.0716 -1.4502,-0.13964 -0.34733,-0.068 -0.65706,-0.17904 -0.9292,-0.33301 -0.25423,-0.14323 -0.45654,-0.34375 -0.60693,-0.60156 -0.14681,-0.25781 -0.22022,-0.5389 -0.22022,-0.84327 0,-0.5192 0.19336,-0.965 0.58008,-1.3374 0.28646,-0.27213 0.68213,-0.48518 1.18701,-0.63916 0.50488,-0.15754 1.05811,-0.23632 1.65967,-0.23633 0.49056,10e-6 0.94531,0.0484 1.36426,0.14502 0.42252,0.0967 0.89876,0.26319 1.42871,0.49951 0.11816,0.0501 0.19156,0.0752 0.22022,0.0752 0.0644,1e-5 0.15217,-0.0716 0.26318,-0.21484 l 0.15039,0.0752" />
          <path
             inkscape:connector-curvature="0"
             id="path3311"
             style="font-size:11px;font-variant:normal;font-stretch:normal;text-align:start;line-height:110.00000238%;writing-mode:lr-tb;text-anchor:start;stroke:#ffffff;stroke-width:0;stroke-miterlimit:4;stroke-opacity:1;stroke-dasharray:none;font-family:Copperplate Gothic Light;-inkscape-font-specification:'Copperplate Gothic Light,'"
             d="m 423.65131,809.07363 -3.92627,0 -0.64453,1.39112 c -0.0609,0.13248 -0.0913,0.22558 -0.0913,0.27929 0,0.10743 0.10563,0.17904 0.31689,0.21485 l 0,0.17187 -1.63281,0 0,-0.17187 c 0.14681,-0.0251 0.25781,-0.0788 0.33301,-0.16114 0.0788,-0.0823 0.18082,-0.26139 0.30615,-0.53711 l 2.68555,-5.79541 c 0.0644,-0.13964 0.0967,-0.23453 0.0967,-0.28466 -10e-6,-0.0931 -0.0877,-0.16292 -0.26319,-0.20948 l 0,-0.17187 1.78321,0 0,0.17187 c -0.17547,0.0573 -0.26319,0.1325 -0.26319,0.22559 0,0.0394 0.0322,0.12891 0.0967,0.26855 l 2.57276,5.58594 c 0.18977,0.41179 0.31509,0.65349 0.37597,0.7251 0.0609,0.0716 0.19335,0.13249 0.39746,0.18262 l 0,0.17187 -1.74023,0 0,-0.17187 c 0.20767,-0.0286 0.31151,-0.10742 0.31152,-0.23633 -10e-6,-0.0573 -0.0394,-0.16829 -0.11816,-0.33301 l -0.59619,-1.31592 m -0.3169,-0.69824 -1.64892,-3.62012 -1.64356,3.62012 3.29248,0" />
        </g>
        <path
           style="font-size:64px;font-style:normal;font-variant:normal;font-weight:500;font-stretch:normal;line-height:125%;letter-spacing:0px;word-spacing:0px;fill:#000000;fill-opacity:1;stroke:none;font-family:Futura;-inkscape-font-specification:Futura Medium"
           d="m 104.75,107.9375 c -1.43615,1e-5 -2.73181,0.14709 -3.9375,0.46875 l 0,37.53125 55.125,0 0,-6.84375 -47.84375,0 0,-30.8125 c -1.03615,-0.22258 -2.13153,-0.34374 -3.34375,-0.34375 z"
           transform="translate(0,680.31491)"
           id="path3034"
           inkscape:export-filename="/Users/peb/Documents/NAACL-HLT-2015/logo/g100.png"
           inkscape:export-xdpi="174.65131"
           inkscape:export-ydpi="174.65131"
           inkscape:connector-curvature="0" />
        <path
           style="font-size:64px;font-style:normal;font-variant:normal;font-weight:500;font-stretch:normal;line-height:125%;letter-spacing:0px;word-spacing:0px;fill:#000000;fill-opacity:1;stroke:none;font-family:Futura;-inkscape-font-specification:Futura Medium"
           d="m 77.53125,94.65625 -23.875,51.28125 7.84375,0 5.375,-11.71875 11.3125,0 c -0.9985,-2.14712 -1.713327,-4.43962 -2.15625,-6.84375 l -6.125,0 11.28125,-24.59375 -3.65625,-8.125 z"
           transform="translate(0,680.31491)"
           id="path3014"
           inkscape:export-filename="/Users/peb/Documents/NAACL-HLT-2015/logo/g100.png"
           inkscape:export-xdpi="174.65131"
           inkscape:export-ydpi="174.65131"
           inkscape:connector-curvature="0" />
        <g
           transform="translate(-71.375,163.25)"
           id="g3851"
           style="font-size:40px;font-style:normal;font-weight:normal;line-height:125%;letter-spacing:0px;word-spacing:0px;fill:#ffffff;fill-opacity:0.68913861;stroke:#e9e9e9;stroke-width:8;stroke-miterlimit:4;stroke-opacity:1;stroke-dasharray:none;font-family:Sans" />
        <g
           transform="translate(-71.375,223.25)"
           id="g3890"
           style="font-size:40px;font-style:normal;font-weight:normal;line-height:125%;letter-spacing:0px;word-spacing:0px;fill:#000000;fill-opacity:1;stroke:none;font-family:Sans"
           inkscape:export-xdpi="174.65131"
           inkscape:export-ydpi="174.65131"
           inkscape:export-filename="/Users/peb/Documents/NAACL-HLT-2015/logo/g100.png">
          <path
             style="font-size:64px;font-variant:normal;font-weight:500;font-stretch:normal;fill:#000000;fill-opacity:1;font-family:Futura;-inkscape-font-specification:Futura Medium"
             d="m 103.5625,97.09375 c -6.40627,0.28569 -11.94533,2.74223 -16.59375,7.3125 -4.97917,4.87504 -7.46875,10.70837 -7.46875,17.5 0,7.72919 2.72916,13.97918 8.1875,18.75 2.83512,2.46585 5.87497,4.22379 9.125,5.28125 l 0,-7.46875 c -1.62137,-0.82677 -3.15122,-1.92057 -4.59375,-3.3125 -3.58335,-3.43748 -5.37501,-7.8229 -5.375,-13.15625 -1e-5,-5.0833 1.72915,-9.35413 5.1875,-12.8125 3.45831,-3.49996 7.69789,-5.24996 12.71875,-5.25 5.04163,4e-5 9.2708,1.75004 12.6875,5.25 1.82995,1.85217 3.14783,3.92731 4,6.25 l 7.59375,0 c -1.10707,-4.08362 -3.25628,-7.73866 -6.5,-10.96875 -4.91671,-4.91662 -10.81254,-7.37495 -17.6875,-7.375 -0.44702,-0.009 -0.90127,-2.4e-4 -1.28125,0 z"
             transform="translate(71.375,457.06491)"
             id="path3892"
             inkscape:connector-curvature="0" />
        </g>
      </g>
    </g>
  </g>
</svg>
